PathFileType	4	(X/Y/Z)	Patient4_TMGait_0pt3_02_left_28.trc.trc
DataRate	CameraRate	NumFrames	NumMarkers	Units	OrigDataRate	OrigDataStartFrame	OrigNumFrames
50.000000000000	50.000000000000	4	33	mm	50.000000000000	36	       141
Frame#	Time	Sacral			L.Shoulder			Chest			R.Shoulder			Neck			R.ASIS			L.ASIS			R.Thigh.Superior			R.Thigh.Lateral			R.Thigh.Inferior			R.Patella			L.Thigh.Superior			L.Thigh.Lateral			L.Thigh.Inferior			L.Patella			L.Shank.Superior			L.Shank.Lateral			L.Shank.Inferior			R.Shank.Superior			R.Shank.Lateral			R.Shank.Inferior			R.Heel			R.Midfoot.Superior			R.Midfoot.Lateral			R.Toe			L.Heel			L.Midfoot.Lateral			L.Midfoot.Superior			L.Toe			L.Elbow			L.Wrist			R.Elbow			R.Wrist			
		X1	Y1	Z1	X2	Y2	Z2	X3	Y3	Z3	X4	Y4	Z4	X5	Y5	Z5	X6	Y6	Z6	X7	Y7	Z7	X8	Y8	Z8	X9	Y9	Z9	X10	Y10	Z10	X11	Y11	Z11	X12	Y12	Z12	X13	Y13	Z13	X14	Y14	Z14	X15	Y15	Z15	X16	Y16	Z16	X17	Y17	Z17	X18	Y18	Z18	X19	Y19	Z19	X20	Y20	Z20	X21	Y21	Z21	X22	Y22	Z22	X23	Y23	Z23	X24	Y24	Z24	X25	Y25	Z25	X26	Y26	Z26	X27	Y27	Z27	X28	Y28	Z28	X29	Y29	Z29	X30	Y30	Z30	X31	Y31	Z31	X32	Y32	Z32	X33	Y33	Z33	

36	55.420000000000	768.474603677454	1009.439259257951	520.591914300722	924.844364614042	1419.292969914338	294.238538125527	1058.341483709470	1350.195481512396	431.585579352903	1019.702533669942	1435.076034217311	614.763240445952	940.387704556091	1486.798519592953	447.917434465263	1008.961501768173	928.596908403146	597.532268672378	952.640316196261	953.339660990697	329.908914141187	1002.505381761389	717.377353931461	567.577066069092	905.154828388021	621.104612501431	635.895891867866	958.321130066254	557.807439158491	548.893777611690	937.166035046099	467.389723641461	555.099828441989	1029.621199217693	763.989112869628	367.262131198938	965.185919754132	635.089057288773	300.535945257597	1063.917401970088	573.056711005742	362.629765764372	1077.759995989321	502.271836442038	366.237969102968	1057.121108968121	428.865207840364	356.006343560250	979.574128889430	308.626174148566	299.966971341790	1041.831264848351	198.983565270917	364.087007531759	885.231225410165	388.403990841934	564.769951125323	794.479109904078	306.048475065449	634.898531470440	802.988664846397	205.280593890700	567.873470723391	630.369593134603	64.312200616878	548.113978037439	808.394381587319	99.555632640615	574.162291767596	716.715016905084	46.519138146461	616.488981545259	922.849622126388	37.393862070045	594.218199158618	923.720791025783	39.848194692664	395.956123344726	1001.056764012832	37.015963929210	318.789868959073	1084.239629984030	97.348137364736	349.039923738747	1212.456983048510	43.369464773463	324.990666708474	793.106876719062	1085.948647689960	222.357569654240	779.343508319820	824.946065678251	230.000549300469	1195.863508811444	1146.174190984654	721.120004464471	1394.570150470457	1260.987347494225	622.466982329132	
37	55.440000000000	769.808304890190	1009.967788172721	515.081836982040	927.302157739731	1419.947636725675	290.043073483614	1060.110560802948	1350.594433610353	427.946593718987	1020.622367480827	1435.231246268212	611.062025820962	942.059910058282	1487.291248158197	444.051239876070	1009.779471302945	929.012654056363	593.439557694442	955.028364500057	953.641299186143	325.543140623887	1002.395501471075	717.585907659841	564.918848690299	904.182357668380	622.144576735090	633.344777485596	957.864768593630	557.953559543505	547.249684801885	936.239454571256	467.238034086430	554.099970186881	1031.933291083732	764.463858604976	364.471827826064	967.966106571859	635.156549070092	297.882547845044	1066.370719066298	573.111219972824	360.579879324091	1079.888093064523	501.605682370720	364.587906972201	1058.076189293712	428.020107131912	354.747330409672	978.925970390627	308.807722980975	298.889544172462	1038.564645119019	198.468285242291	363.956788411534	883.197148737039	388.888885782060	563.907809653112	791.055149966124	308.041999355262	634.011445211349	799.095812592136	206.603645941952	567.966721431623	625.060106294921	67.288990616696	548.431727844172	803.650476039112	100.137318202556	574.631855287616	711.215989054692	47.913112783897	616.679504642715	917.109883873785	37.233958393543	594.286559847912	917.974576835653	40.001957833362	395.952638725092	995.287519542586	37.228094994486	318.842801351610	1078.521079549676	97.461005604967	349.173477874105	1206.711839902535	43.124256176724	324.937559326123	798.210336494141	1085.691333170702	215.598998029538	788.629362379385	824.440612478164	221.587285267190	1194.656099426059	1144.151922815434	717.142051890479	1399.582069551037	1250.483336627694	620.293595004935	
38	55.460000000000	771.063968192675	1010.422552313838	509.370602999283	929.900174798147	1420.549241243446	285.761947180909	1061.829698288235	1350.978479639178	424.409148679809	1021.239855156642	1435.413913736783	607.384290266879	943.650482448729	1487.759505567868	440.117641334345	1010.470152900037	929.425941098012	589.358015841760	957.493954023753	953.863172049925	321.149647707930	1002.425765309490	717.834322158899	562.205056667580	903.484183038829	623.109509781470	630.710815240775	957.792679631843	558.056452613269	545.554505335513	935.841783036815	466.927224664075	553.158131228990	1034.034371905940	764.615730498555	361.362097304403	970.211800712030	635.009907327881	295.074106739663	1068.305188400830	572.876572594974	358.278745564989	1081.510504928441	500.779047595056	362.691491047511	1058.514549321474	427.055740741591	353.305437251654	977.786728106773	308.804758255278	297.781422350788	1035.066733600412	197.926209522863	363.705427969098	881.565058397015	389.302220563996	563.067258758807	787.930922627045	310.067946717783	633.082364589421	795.439581916275	207.929295466055	568.071311037769	619.854191117627	70.421079085710	548.753865850160	799.029261763921	100.680959892656	575.118497246220	705.772730288425	49.370754299757	616.871881202201	911.377049361259	37.113076238576	594.334275802708	912.189237823629	40.128443517277	395.967860410831	989.467664314023	37.389990062982	318.891673924296	1072.753472037197	97.539813674040	349.265898408319	1200.914654965715	42.872941561896	324.856589410185	803.811481809520	1085.324586174322	208.479577321280	798.410511217595	823.913528043580	212.807125454005	1192.625852513776	1141.874388030405	713.477310958733	1404.107038774068	1238.344665688338	618.735010272746	
39	55.480000000000	772.235410642020	1010.801082299111	503.508900777350	932.588491515439	1421.092109412106	281.414028142088	1063.469848080827	1351.348394214941	420.966813433251	1021.562991382244	1435.634202056152	603.725902458539	945.137669636835	1488.204633916629	436.116182359144	1011.023557240197	929.837844768272	585.290002825908	959.990960438281	954.023409742931	316.739902553874	1002.673874774104	718.126241559900	559.409322457678	903.199339305188	623.953934499626	627.974639747924	958.258089768472	558.103661995231	543.769447935078	936.150161990055	466.414205287711	552.256390487957	1035.909596800075	764.474806259532	357.926841827891	971.898230745210	634.682384801778	292.122759860400	1069.684732410635	572.384810302842	355.729327965265	1082.555477831717	499.819316502829	360.562335811380	1058.402918072399	425.992468158024	351.682127643655	976.145442822630	308.628771065944	296.616831568338	1031.323042582377	197.355383099848	363.329488003599	880.494571831661	389.618829873918	562.235426202276	785.246414174080	312.142197054401	632.096801089478	792.116402247072	209.269632329235	568.171592867946	614.806674828741	73.812306292438	549.082862205632	794.562666661605	101.176129632384	575.596886919485	700.414140459364	50.959212948274	617.065840895044	905.643096981849	37.013488027057	594.352131271366	906.353160976892	40.226576623131	395.990076539623	983.592051708693	37.492609011229	318.926538079186	1066.937312919115	97.566271386855	349.315485257023	1195.066754213889	42.593717497332	324.761489369859	809.979304309678	1084.803687288727	201.060326971179	808.786488899200	823.327365151573	203.756936060904	1189.676998679481	1139.337292084925	710.174860499012	1407.803983984021	1224.513457361770	617.823402240471	
